<svg width="75" height="75" viewBox="0 0 75 75" fill="none" xmlns="http://www.w3.org/2000/svg">
<g style="mix-blend-mode:multiply">
<path d="M20.6875 33.7188C25.1875 42.5625 32.4375 49.7812 41.2812 54.3125L48.1562 47.4375C49 46.5938 50.25 46.3125 51.3438 46.6875C54.8438 47.8438 58.625 48.4688 62.5 48.4688C64.2188 48.4688 65.625 49.875 65.625 51.5938V62.5C65.625 64.2188 64.2188 65.625 62.5 65.625C33.1562 65.625 9.375 41.8438 9.375 12.5C9.375 10.7812 10.7812 9.375 12.5 9.375H23.4375C25.1562 9.375 26.5625 10.7812 26.5625 12.5C26.5625 16.4062 27.1875 20.1563 28.3438 23.6563C28.6875 24.75 28.4375 25.9688 27.5625 26.8438L20.6875 33.7188Z" fill="#E5E5E5"/>
</g>
</svg>
