<svg width="28" height="82" viewBox="0 0 28 82" fill="none" xmlns="http://www.w3.org/2000/svg">
<path fill-rule="evenodd" clip-rule="evenodd" d="M26 37.2542V14C26 7.37258 20.6274 2 14 2C7.37258 2 2 7.37257 2 14V37.2542C2 43.8817 7.37258 49.2542 14 49.2542C20.6274 49.2542 26 43.8817 26 37.2542ZM14 0C6.26801 0 0 6.268 0 14V37.2542C0 44.9862 6.26801 51.2542 14 51.2542C21.732 51.2542 28 44.9862 28 37.2542V14C28 6.26801 21.732 0 14 0Z" fill="#E2231A"/>
<path fill-rule="evenodd" clip-rule="evenodd" d="M13.7119 46.9832C13.1596 46.9832 12.7119 46.5354 12.7119 45.9832V41.3391C12.7119 40.7868 13.1596 40.3391 13.7119 40.3391C14.2642 40.3391 14.7119 40.7868 14.7119 41.3391V45.9832C14.7119 46.5354 14.2642 46.9832 13.7119 46.9832Z" fill="#E2231A"/>
<path fill-rule="evenodd" clip-rule="evenodd" d="M25.4808 56.9796C25.8103 57.4229 25.7181 58.0493 25.2748 58.3788L13.8153 66.8974L2.71314 58.3693C2.27516 58.0328 2.19284 57.405 2.52928 56.9671C2.86571 56.5291 3.4935 56.4468 3.93149 56.7832L13.8351 64.3907L24.0817 56.7737C24.5249 56.4442 25.1513 56.5364 25.4808 56.9796Z" fill="#E2231A"/>
<path fill-rule="evenodd" clip-rule="evenodd" d="M25.4808 71.9796C25.8103 72.4229 25.7181 73.0493 25.2748 73.3788L13.8153 81.8974L2.71314 73.3693C2.27516 73.0328 2.19284 72.405 2.52928 71.9671C2.86571 71.5291 3.4935 71.4468 3.93149 71.7832L13.8351 79.3907L24.0817 71.7737C24.5249 71.4442 25.1513 71.5364 25.4808 71.9796Z" fill="#E2231A"/>
</svg>
