<svg width="409" height="119" viewBox="0 0 409 119" fill="none" xmlns="http://www.w3.org/2000/svg">
<g clip-path="url(#clip0)">
<path fill-rule="evenodd" clip-rule="evenodd" d="M9.36096 99.258C9.32721 97.7346 9.3186 96.2263 9.336 94.735C9.35138 93.2437 9.37634 91.7684 9.41028 90.3091C9.44293 89.077 9.55103 87.8525 9.73334 86.6364C9.91584 85.4203 10.2236 84.2457 10.6549 83.1107C10.9202 82.365 11.2523 81.7495 11.6508 81.2621C12.0493 80.7766 12.5299 80.3553 13.0944 79.9979C14.0902 79.3173 15.2018 78.9761 16.4303 78.9761C17.6248 78.9761 18.7529 79.2853 19.8153 79.9009C20.5786 80.3223 20.9268 80.9388 20.8612 81.7495C20.8612 82.235 20.6615 82.6724 20.263 83.0617C19.7662 83.5481 19.218 83.9375 18.6206 84.2297C17.6904 84.6841 17.035 85.2752 16.6542 86.0048C16.2719 86.7344 15.9979 87.5536 15.8328 88.4614C15.6998 89.175 15.6158 89.8801 15.584 90.5768C15.5502 91.2744 15.5338 91.9795 15.5338 92.6922C15.5338 93.5359 15.5502 94.3457 15.584 95.1243C15.6158 95.903 15.6658 96.6968 15.7335 97.5074C16.7612 97.3132 17.7493 97.1351 18.695 96.972C19.6415 96.8099 20.5951 96.6496 21.558 96.4865C22.3541 96.3574 23.1338 96.2593 23.898 96.1943C24.6613 96.1302 25.442 96.0972 26.238 96.0972C26.7687 96.0972 27.2164 96.1782 27.5822 96.3395C27.947 96.5026 28.1456 96.8099 28.1795 97.2643C28.2122 97.6536 28.0628 97.9458 27.7316 98.14C27.399 98.3351 27.0513 98.5133 26.6857 98.6745C25.5576 98.9667 24.4375 99.2759 23.3256 99.5983C22.2132 99.9235 21.1103 100.231 20.0149 100.523C19.4496 100.686 18.7943 100.872 18.0484 101.083C17.3016 101.293 16.5962 101.496 15.9323 101.69C15.8986 102.307 15.882 102.899 15.882 103.465C15.882 104.034 15.8647 104.641 15.8328 105.29C15.799 106.196 15.7335 107.145 15.6332 108.134C15.5338 109.123 15.384 110.088 15.1854 111.028C14.9865 112.002 14.704 112.999 14.339 114.02C13.9735 115.041 13.5084 115.941 12.9448 116.719C12.5463 117.271 12.0812 117.716 11.5515 118.056C11.0197 118.397 10.4224 118.6 9.75849 118.665C9.09467 118.665 8.41437 118.56 7.7176 118.348C7.01997 118.137 6.33961 117.869 5.67567 117.546C5.01191 117.222 4.39045 116.857 3.80958 116.452C3.22877 116.046 2.73854 115.649 2.34089 115.26C1.51118 114.449 0.91389 113.607 0.5481 112.731C0.18323 111.855 0 110.947 0 110.007C0 108.288 0.4574 106.724 1.3692 105.314C2.28302 103.904 3.41968 102.777 4.78033 101.933C5.54345 101.447 6.29821 100.993 7.04516 100.572C7.7918 100.151 8.56378 99.7134 9.36096 99.258V99.258ZM9.36096 104.511C9.16131 104.544 8.92859 104.609 8.66339 104.706C8.39801 104.803 8.18182 104.9 8.01684 104.998C7.65106 105.224 7.29418 105.46 6.9458 105.703C6.59723 105.946 6.27301 106.23 5.97485 106.553C5.24444 107.364 4.8634 108.159 4.82965 108.938C4.79755 109.521 4.91351 110.186 5.17877 110.931C5.44311 111.515 5.7915 112.115 6.22387 112.731C6.35607 112.893 6.52306 113.038 6.72186 113.169C6.92059 113.298 7.13586 113.363 7.36932 113.363C7.83331 113.363 8.19818 113.128 8.46453 112.658C8.72991 112.188 8.92858 111.628 9.06182 110.98C9.19396 110.364 9.29333 109.724 9.36095 109.059C9.42662 108.394 9.46019 107.835 9.46019 107.38C9.46019 106.635 9.45177 106.06 9.43529 105.654C9.41789 105.249 9.39269 104.867 9.36095 104.511H9.36096Z" fill="white"/>
<path fill-rule="evenodd" clip-rule="evenodd" d="M30.0219 103.1C28.528 103.1 27.2747 102.622 26.2622 101.666C25.25 100.71 24.6779 99.534 24.5447 98.1398C24.4453 96.7776 24.6943 95.2862 25.2916 93.6648C25.8888 92.0444 26.7854 90.536 27.98 89.1418C29.0423 87.9097 30.345 86.8793 31.8889 86.0526C33.4318 85.2259 35.0163 84.813 36.6432 84.813C37.5059 84.813 38.3359 84.9836 39.1328 85.3239C39.9289 85.6642 40.6585 86.2072 41.3234 86.9529C42.1194 87.8286 42.5681 88.8666 42.6676 90.0656C42.7341 90.8434 42.6676 91.606 42.4688 92.3517C42.1696 93.5847 41.58 94.8328 40.7009 96.097C39.8208 97.3611 38.7923 98.5131 37.614 99.55C36.4358 100.588 35.1825 101.44 33.8545 102.104C32.5269 102.768 31.2492 103.1 30.0219 103.1H30.0219ZM29.7227 98.8204C30.8507 98.8204 31.8552 98.5771 32.7352 98.0908C33.6144 97.6043 34.4355 96.9718 35.1987 96.1941C35.8963 95.5125 36.4851 94.7347 36.9666 93.8599C37.4482 92.9842 37.6218 92.0764 37.4895 91.1356C37.423 90.7792 37.199 90.472 36.8179 90.2108C36.4358 89.9525 36.0952 89.8884 35.797 90.0166C34.9006 90.3739 34.0544 90.8122 33.2573 91.3307C32.4611 91.8492 31.6477 92.3846 30.8179 92.9352C29.1254 94.0702 28.2792 95.6275 28.2792 97.6043C28.2792 97.9616 28.4287 98.2538 28.7269 98.4801C29.0259 98.7073 29.3569 98.8204 29.7227 98.8204H29.7227Z" fill="white"/>
<path d="M60.1912 86.8071C61.1871 86.4187 62.0991 86.2236 62.9298 86.2236C63.9584 86.2236 64.9533 86.4357 65.9163 86.8562C66.4807 87.1154 66.9199 87.4632 67.2364 87.9016C67.5508 88.339 67.7912 88.8829 67.9581 89.5315C68.1569 90.3743 68.2893 91.0964 68.3559 91.6959C68.4223 92.2955 68.5053 92.9686 68.6057 93.7133C69.036 93.455 69.3843 93.2033 69.6507 92.9601C69.9162 92.7168 70.1814 92.4331 70.4468 92.1088C71.1107 91.3311 71.7495 90.7391 72.3642 90.3337C72.9779 89.9293 73.6659 89.7257 74.4301 89.7257C74.9608 89.7257 75.508 89.8068 76.0734 89.9689C76.637 90.1311 77.101 90.3743 77.4668 90.6986C78.0313 91.087 78.371 91.5253 78.4878 92.0117C78.6035 92.4981 78.6613 93.0166 78.6613 93.5681C78.6287 94.2497 78.6035 94.9293 78.5871 95.6109C78.5698 96.2925 78.5621 96.9722 78.5621 97.6537C78.5621 98.1731 78.7859 98.5615 79.2346 98.8208C79.6823 99.0809 80.1388 99.129 80.6039 98.9669C81.6654 98.6105 82.5781 98.2297 83.3424 97.8243C84.1046 97.419 84.8679 96.941 85.6323 96.3887C85.997 96.1303 86.3703 95.9267 86.7526 95.7815C87.1337 95.6345 87.5061 95.741 87.8718 96.0973C88.4365 96.7459 88.4703 97.4755 87.9722 98.2863C87.5399 99.0319 87.0507 99.7531 86.5036 100.451C85.9555 101.148 85.3496 101.788 84.6866 102.372C83.9223 103.02 83.0924 103.539 82.197 103.927C81.3006 104.317 80.4051 104.511 79.5087 104.511C78.5794 104.511 77.6742 104.324 76.7952 103.953C75.9152 103.579 75.1934 103.02 74.6288 102.274C74.1637 101.658 73.7498 101.043 73.3849 100.425C73.0194 99.8106 72.6873 99.1941 72.3885 98.5776C72.1229 98.06 71.7417 97.7838 71.2439 97.7508C70.7458 97.7188 70.3147 97.8809 69.9498 98.2373C69.2851 98.8868 68.6461 99.5184 68.0325 100.134C67.4177 100.75 66.7963 101.366 66.1652 101.983C65.9665 102.177 65.6751 102.38 65.294 102.59C64.9118 102.802 64.5722 102.906 64.2739 102.906C63.477 102.906 62.8129 102.615 62.2823 102.031C61.4862 101.156 61.1697 100.103 61.3367 98.8698C61.4022 98.3824 61.5017 97.8168 61.6348 97.1673C61.767 96.5187 61.8422 95.8956 61.8587 95.2951C61.875 94.6946 61.8095 94.1752 61.6599 93.7388C61.5103 93.3004 61.1697 93.0657 60.639 93.0336C60.0746 92.9686 59.5764 93.0817 59.1453 93.3739C58.7138 93.6652 58.2661 94.0385 57.801 94.4919C57.336 94.9463 56.8805 95.4403 56.4328 95.9757C55.9841 96.5103 55.5615 97.0212 55.163 97.5076C54.4981 98.3513 53.8439 99.1781 53.1963 99.9878C52.549 100.799 51.8937 101.626 51.2298 102.468C50.732 103.118 50.1847 103.612 49.5874 103.953C48.9891 104.293 48.3425 104.333 47.6449 104.073C46.6819 103.718 46.0103 103.158 45.6292 102.395C45.247 101.635 45.1225 100.799 45.2558 99.8907C45.4207 98.1401 45.7527 96.4706 46.2515 94.8813C46.7496 93.2928 47.3622 91.7686 48.0938 90.3092C48.6572 89.1752 49.2295 88.1288 49.8113 87.172C50.3914 86.2161 51.0475 85.2517 51.7779 84.2779C52.0432 83.9225 52.3327 83.6463 52.6482 83.4521C52.9637 83.256 53.3535 83.1599 53.8188 83.1599C54.416 83.1599 55.0133 83.305 55.6106 83.5973C56.208 83.8886 56.5893 84.3109 56.7561 84.8624C56.922 85.3167 57.005 85.7947 57.005 86.2962C57.005 86.7996 57.0377 87.3756 57.1045 88.0232C57.6352 87.829 58.1668 87.6264 58.6976 87.4161C59.2284 87.205 59.7262 87.0023 60.1913 86.8072L60.1912 86.8071Z" fill="white"/>
<path fill-rule="evenodd" clip-rule="evenodd" d="M90.1625 103.1C88.6687 103.1 87.4152 102.622 86.4031 101.666C85.3907 100.71 84.8185 99.534 84.6864 98.1398C84.5869 96.7776 84.835 95.2862 85.4331 93.6648C86.0306 92.0444 86.9259 90.536 88.1216 89.1418C89.183 87.9097 90.4857 86.8793 92.0297 86.0526C93.5726 85.2259 95.157 84.813 96.7839 84.813C97.6465 84.813 98.4766 84.9836 99.2734 85.3239C100.07 85.6642 100.799 86.2072 101.464 86.9529C102.26 87.8286 102.709 88.8666 102.808 90.0656C102.875 90.8434 102.808 91.606 102.609 92.3517C102.31 93.5847 101.721 94.8328 100.842 96.097C99.9615 97.3611 98.933 98.5131 97.7546 99.55C96.5765 100.588 95.323 101.44 93.9963 102.104C92.6683 102.768 91.3899 103.1 90.1625 103.1H90.1625ZM89.8633 98.8204C90.9913 98.8204 91.996 98.5771 92.876 98.0908C93.755 97.6043 94.576 96.9718 95.3406 96.1941C96.0371 95.5125 96.6267 94.7347 97.1082 93.8599C97.5886 92.9842 97.7623 92.0764 97.6302 91.1356C97.5637 90.7792 97.3397 90.472 96.9586 90.2108C96.5765 89.9525 96.2357 89.8884 95.9376 90.0166C95.0413 90.3739 94.1949 90.8122 93.3978 91.3307C92.6017 91.8492 91.7882 92.3846 90.9593 92.9352C89.2661 94.0702 88.4198 95.6275 88.4198 97.6043C88.4198 97.9616 88.5692 98.2538 88.8685 98.4801C89.1666 98.7073 89.4977 98.8204 89.8633 98.8204Z" fill="white"/>
<path fill-rule="evenodd" clip-rule="evenodd" d="M107.487 99.258C107.453 97.7346 107.445 96.2263 107.462 94.735C107.479 93.2437 107.504 91.7684 107.536 90.3091C107.569 89.077 107.677 87.8525 107.861 86.6364C108.042 85.4203 108.35 84.2457 108.781 83.1107C109.046 82.365 109.378 81.7495 109.777 81.2621C110.176 80.7766 110.656 80.3553 111.221 79.9979C112.216 79.3173 113.328 78.9761 114.557 78.9761C115.751 78.9761 116.879 79.2853 117.942 79.9009C118.705 80.3223 119.054 80.9388 118.988 81.7495C118.988 82.235 118.789 82.6724 118.39 83.0617C117.892 83.5481 117.344 83.9375 116.747 84.2297C115.818 84.6841 115.162 85.2752 114.781 86.0048C114.399 86.7344 114.125 87.5536 113.959 88.4614C113.826 89.175 113.743 89.8801 113.71 90.5768C113.677 91.2744 113.66 91.9795 113.66 92.6922C113.66 93.5359 113.677 94.3457 113.71 95.1243C113.743 95.903 113.793 96.6968 113.86 97.5074C114.887 97.3132 115.875 97.1351 116.822 96.972C117.768 96.8099 118.722 96.6496 119.685 96.4865C120.481 96.3574 121.261 96.2593 122.024 96.1943C122.787 96.1302 123.568 96.0972 124.364 96.0972C124.895 96.0972 125.343 96.1782 125.708 96.3395C126.074 96.5026 126.273 96.8099 126.306 97.2643C126.339 97.6536 126.19 97.9458 125.858 98.14C125.526 98.3351 125.178 98.5133 124.813 98.6745C123.684 98.9667 122.564 99.2759 121.452 99.5983C120.339 99.9235 119.237 100.231 118.141 100.523C117.577 100.686 116.921 100.872 116.175 101.083C115.428 101.293 114.722 101.496 114.058 101.69C114.025 102.307 114.009 102.899 114.009 103.465C114.009 104.034 113.992 104.641 113.959 105.29C113.925 106.196 113.86 107.145 113.759 108.134C113.66 109.123 113.511 110.088 113.312 111.028C113.113 112.002 112.83 112.999 112.465 114.02C112.1 115.041 111.636 115.941 111.071 116.719C110.673 117.271 110.208 117.716 109.677 118.056C109.146 118.397 108.549 118.6 107.886 118.665C107.221 118.665 106.541 118.56 105.844 118.348C105.147 118.137 104.467 117.869 103.803 117.546C103.138 117.222 102.517 116.857 101.936 116.452C101.356 116.046 100.866 115.649 100.467 115.26C99.6382 114.449 99.0408 113.607 98.6752 112.731C98.3093 111.855 98.127 110.947 98.127 110.007C98.127 108.288 98.5835 106.724 99.4962 105.314C100.41 103.904 101.546 102.777 102.906 101.933C103.67 101.447 104.425 100.993 105.172 100.572C105.919 100.151 106.69 99.7134 107.487 99.258L107.487 99.258ZM107.487 104.511C107.288 104.544 107.055 104.609 106.79 104.706C106.524 104.803 106.308 104.9 106.143 104.998C105.777 105.224 105.42 105.46 105.073 105.703C104.723 105.946 104.4 106.23 104.101 106.553C103.371 107.364 102.989 108.159 102.956 108.938C102.924 109.521 103.04 110.186 103.305 110.931C103.57 111.515 103.919 112.115 104.351 112.731C104.482 112.893 104.649 113.038 104.848 113.169C105.048 113.298 105.263 113.363 105.495 113.363C105.96 113.363 106.324 113.128 106.591 112.658C106.856 112.188 107.055 111.628 107.188 110.98C107.32 110.364 107.421 109.724 107.487 109.059C107.553 108.394 107.587 107.835 107.587 107.38C107.587 106.635 107.578 106.06 107.561 105.654C107.545 105.249 107.52 104.867 107.487 104.511H107.487Z" fill="white"/>
<path d="M152.344 76.3497C153.306 76.4797 154.235 76.6099 155.131 76.739C156.028 76.8691 156.857 77.0142 157.621 77.1764C158.417 77.3395 158.832 77.6798 158.866 78.1983C158.898 78.5555 158.848 78.8223 158.716 79.0014C158.583 79.1796 158.384 79.3493 158.119 79.5114C156.526 80.1921 154.85 80.7765 153.091 81.262C152.326 81.4892 151.563 81.7089 150.8 81.9191C150.037 82.1302 149.273 82.3499 148.51 82.5761C146.286 83.1917 144.627 84.4888 143.532 86.4666C142.966 87.5045 142.411 88.5339 141.863 89.5548C141.316 90.5767 140.842 91.6061 140.445 92.6431C140.079 93.5518 139.78 94.4436 139.548 95.3184C139.316 96.1942 139.133 97.086 139 97.9938C138.934 98.5773 138.959 99.1288 139.076 99.6473C139.191 100.167 139.581 100.425 140.245 100.425C140.577 100.425 140.934 100.345 141.316 100.183C141.697 100.021 142.07 99.8104 142.436 99.5501C143.233 98.9666 143.929 98.4482 144.527 97.9938C145.124 97.5404 145.804 97.0209 146.569 96.4374C146.899 96.1782 147.24 95.9189 147.589 95.6597C147.937 95.3995 148.294 95.1412 148.66 94.881C148.925 94.7198 149.207 94.5982 149.506 94.5162C149.804 94.4361 150.103 94.5087 150.402 94.7349C150.668 94.9621 150.783 95.2374 150.751 95.5617C150.717 95.8869 150.617 96.2262 150.452 96.5835C149.921 97.6214 149.331 98.6103 148.684 99.5501C148.037 100.491 147.332 101.432 146.569 102.372C146.136 102.891 145.647 103.393 145.1 103.879C144.552 104.365 143.996 104.803 143.431 105.192C143.033 105.484 142.576 105.703 142.063 105.848C141.548 105.995 141.008 106.068 140.445 106.068C139.482 106.068 138.635 105.856 137.905 105.435C137.176 105.014 136.512 104.479 135.913 103.831C135.018 102.891 134.262 101.869 133.649 100.766C133.034 99.6642 132.728 98.4312 132.728 97.0699C132.728 95.3514 132.918 93.6819 133.3 92.0595C133.682 90.4391 134.172 88.9477 134.769 87.5855C134.935 87.1321 135.109 86.6777 135.291 86.2233C135.473 85.769 135.632 85.3165 135.765 84.8621C134.835 84.3436 134.047 83.8647 133.4 83.4264C132.752 82.989 132.114 82.5111 131.483 81.9926C131.184 81.7324 130.935 81.4816 130.736 81.2384C130.537 80.9952 130.354 80.6954 130.188 80.3381C129.957 79.8847 129.957 79.4143 130.188 78.9279C130.421 78.5395 130.736 78.3444 131.134 78.3444C131.367 78.3444 131.599 78.3849 131.832 78.465C132.063 78.547 132.279 78.6206 132.478 78.6847C132.943 78.8477 133.4 78.9844 133.847 79.0975C134.296 79.2117 134.752 79.2682 135.217 79.2682C136.379 79.2682 137.391 79.1466 138.253 78.9034C139.116 78.6602 139.947 78.0691 140.743 77.1273C141.307 76.4797 141.888 75.8311 142.486 75.1826C143.083 74.535 143.731 73.9175 144.427 73.3349C145.522 72.4271 146.784 71.9887 148.212 72.0218C149.804 72.0547 150.916 72.8325 151.547 74.3558C151.679 74.6151 151.803 74.8988 151.92 75.2071C152.036 75.5163 152.177 75.8962 152.344 76.3496L152.344 76.3497Z" fill="white"/>
<path fill-rule="evenodd" clip-rule="evenodd" d="M153.987 103.1C152.493 103.1 151.24 102.622 150.227 101.666C149.215 100.71 148.643 99.534 148.511 98.1398C148.411 96.7776 148.659 95.2862 149.257 93.6648C149.855 92.0444 150.75 90.536 151.946 89.1418C153.007 87.9097 154.31 86.8793 155.854 86.0526C157.397 85.2259 158.981 84.813 160.608 84.813C161.471 84.813 162.301 84.9836 163.098 85.3239C163.895 85.6642 164.623 86.2072 165.288 86.9529C166.085 87.8286 166.533 88.8666 166.632 90.0656C166.699 90.8434 166.632 91.606 166.434 92.3517C166.134 93.5847 165.545 94.8328 164.666 96.097C163.786 97.3611 162.757 98.5131 161.579 99.55C160.401 100.588 159.147 101.44 157.82 102.104C156.493 102.768 155.214 103.1 153.987 103.1H153.987ZM153.688 98.8204C154.816 98.8204 155.82 98.5771 156.7 98.0908C157.579 97.6043 158.4 96.9718 159.165 96.1941C159.861 95.5125 160.451 94.7347 160.932 93.8599C161.413 92.9842 161.587 92.0764 161.454 91.1356C161.388 90.7792 161.164 90.472 160.783 90.2108C160.401 89.9525 160.06 89.8884 159.762 90.0166C158.865 90.3739 158.019 90.8122 157.223 91.3307C156.426 91.8492 155.613 92.3846 154.784 92.9352C153.09 94.0702 152.244 95.6275 152.244 97.6043C152.244 97.9616 152.394 98.2538 152.693 98.4801C152.991 98.7073 153.323 98.8204 153.688 98.8204H153.688Z" fill="white"/>
<path fill-rule="evenodd" clip-rule="evenodd" d="M183.658 87.9741C184.454 85.9002 185.209 83.9055 185.923 81.9928C186.636 80.0791 187.375 78.1824 188.139 76.3018C188.537 75.2969 188.977 74.3155 189.459 73.3587C189.939 72.4028 190.462 71.4714 191.027 70.5627C191.756 69.3626 192.685 68.3907 193.814 67.6441C194.213 67.3858 194.653 67.2067 195.134 67.1096C195.615 67.0116 196.104 66.9805 196.603 67.0116C197.3 67.0446 198.047 67.3519 198.843 67.9363C199.373 68.3257 199.763 68.7876 200.013 69.3221C200.262 69.8576 200.386 70.4005 200.386 70.952C200.386 71.4714 200.254 71.989 199.988 72.5075C199.855 72.7676 199.739 73.0109 199.64 73.238C199.539 73.4652 199.423 73.7084 199.291 73.9668C198.029 76.7231 196.826 79.5277 195.681 82.3812C194.536 85.2347 193.515 88.0882 192.62 90.9417C192.187 92.368 191.805 93.7132 191.474 94.9784C191.142 96.2434 190.869 97.5076 190.653 98.7717C190.437 100.037 190.28 101.319 190.18 102.615C190.081 103.912 190.031 105.305 190.031 106.797C190.031 107.121 190.039 107.461 190.056 107.819C190.071 108.175 190.047 108.524 189.981 108.865C189.914 109.205 189.79 109.497 189.608 109.74C189.425 109.983 189.134 110.137 188.737 110.202C188.271 110.299 187.848 110.275 187.467 110.129C187.085 109.983 186.736 109.789 186.421 109.546C186.105 109.302 185.831 109.019 185.6 108.694C185.367 108.369 185.168 108.062 185.002 107.77C184.504 106.927 184.114 106.06 183.832 105.169C183.55 104.276 183.326 103.328 183.16 102.323C182.994 101.124 182.877 99.9633 182.812 98.8452C182.744 97.7263 182.695 96.6007 182.662 95.4648C181.898 96.2434 181.176 96.9891 180.497 97.7027C179.816 98.4163 179.094 99.129 178.331 99.8417C177.236 100.815 176.14 101.739 175.045 102.615C174.747 102.874 174.398 103.06 174 103.173C173.602 103.287 173.219 103.344 172.855 103.344C171.991 103.344 171.236 103.134 170.589 102.712C169.942 102.291 169.402 101.755 168.971 101.107C168.539 100.459 168.216 99.737 168 98.9424C167.784 98.1477 167.677 97.3615 167.677 96.5838C167.677 94.7351 168.075 93.0657 168.871 91.5743C169.668 90.0829 170.83 88.7368 172.357 87.5367C173.519 86.5969 174.829 86.2566 176.29 86.5158C177.451 86.7109 178.621 86.9372 179.799 87.1964C180.977 87.4566 182.264 87.7159 183.658 87.9742V87.9741ZM173.8 99.5023C174.032 99.5023 174.315 99.3977 174.647 99.1855C174.979 98.9744 175.31 98.7312 175.642 98.4559C175.974 98.1816 176.281 97.9054 176.563 97.6292C176.845 97.3549 177.053 97.1512 177.185 97.0211C177.784 96.4055 178.347 95.7739 178.879 95.1244C179.409 94.4758 179.924 93.8273 180.422 93.1787C180.621 92.9195 180.662 92.5707 180.546 92.1324C180.43 91.6959 180.223 91.3141 179.924 90.9908C179.626 90.6985 179.294 90.5364 178.928 90.5034C178.562 90.4723 178.248 90.5364 177.982 90.6985C177.119 91.1519 176.34 91.7685 175.642 92.5462C175.078 93.1948 174.564 93.8603 174.099 94.5409C173.634 95.2216 173.269 96.0002 173.003 96.876C172.904 97.1993 172.83 97.5641 172.78 97.9695C172.73 98.3758 172.804 98.7397 173.003 99.064C173.169 99.3562 173.435 99.5023 173.8 99.5023V99.5023Z" fill="white"/>
<path fill-rule="evenodd" clip-rule="evenodd" d="M217.561 94.2493C217.229 94.8979 216.897 95.5464 216.566 96.1941C216.234 96.8435 215.902 97.5072 215.57 98.1878C215.338 98.6432 215.189 99.1532 215.122 99.7197C215.055 100.288 215.204 100.75 215.57 101.106C215.802 101.334 216.075 101.471 216.392 101.519C216.706 101.568 216.997 101.593 217.263 101.593C217.893 101.593 218.508 101.536 219.104 101.422C219.703 101.309 220.316 101.155 220.947 100.961C221.411 100.799 221.893 100.661 222.391 100.546C222.889 100.433 223.27 100.523 223.536 100.814C223.701 101.074 223.777 101.374 223.76 101.714C223.743 102.055 223.585 102.355 223.287 102.615C222.357 103.361 221.403 103.935 220.424 104.341C219.445 104.745 218.341 104.965 217.114 104.998C215.951 105.029 214.889 104.819 213.927 104.365C212.964 103.912 212.101 103.312 211.338 102.566C210.973 102.209 210.599 101.747 210.218 101.179C209.836 100.612 209.513 100.036 209.247 99.4529C208.782 99.8102 208.425 100.094 208.177 100.303C207.928 100.515 207.637 100.734 207.306 100.961C206.74 101.35 206.177 101.723 205.612 102.079C205.048 102.437 204.451 102.777 203.82 103.1C202.792 103.62 201.78 103.887 200.784 103.903C199.788 103.919 198.809 103.523 197.846 102.712C196.883 101.869 196.344 100.953 196.228 99.9629C196.111 98.9741 196.219 97.9616 196.551 96.9237C197.082 95.3993 197.771 93.9891 198.617 92.692C199.464 91.3958 200.418 90.2287 201.48 89.1899C202.675 88.0228 203.978 87.0188 205.388 86.1742C206.799 85.3324 208.351 84.878 210.043 84.813C210.906 84.813 211.72 84.894 212.484 85.0562C213.247 85.2192 213.877 85.5266 214.375 85.98C214.873 86.4014 215.189 86.9369 215.321 87.5854C215.454 88.235 215.736 88.8005 216.167 89.2879C216.598 89.7743 217.014 90.2928 217.412 90.8434C217.877 91.5899 218.092 92.198 218.059 92.6684C218.026 93.1388 217.86 93.6648 217.561 94.2493V94.2493ZM201.282 99.6962C201.513 99.8262 201.755 99.8413 202.003 99.7452C202.252 99.6471 202.459 99.55 202.626 99.4529C203.521 98.9015 204.376 98.3094 205.19 97.6769C206.002 97.0444 206.79 96.3732 207.555 95.6595C208.218 95.0431 208.857 94.4275 209.471 93.8109C210.085 93.1944 210.691 92.5638 211.288 91.9143C211.62 91.59 211.836 91.2412 211.936 90.8688C212.035 90.4955 211.936 90.1637 211.637 89.8714C211.239 89.384 210.608 89.32 209.745 89.6763C207.919 90.455 206.31 91.5089 204.916 92.8381C203.389 94.2965 202.11 96.097 201.083 98.2369C200.983 98.4311 200.925 98.6827 200.908 98.991C200.891 99.2993 201.015 99.534 201.282 99.6962V99.6962Z" fill="white"/>
<path fill-rule="evenodd" clip-rule="evenodd" d="M223.935 99.258C223.901 97.7346 223.893 96.2263 223.91 94.735C223.926 93.2437 223.951 91.7684 223.984 90.3091C224.017 89.077 224.125 87.8525 224.308 86.6364C224.49 85.4203 224.798 84.2457 225.229 83.1107C225.495 82.365 225.827 81.7495 226.225 81.2621C226.624 80.7766 227.104 80.3553 227.669 79.9979C228.664 79.3173 229.776 78.9761 231.005 78.9761C232.199 78.9761 233.327 79.2853 234.39 79.9009C235.153 80.3223 235.502 80.9388 235.436 81.7495C235.436 82.235 235.237 82.6724 234.838 83.0617C234.34 83.5481 233.792 83.9375 233.195 84.2297C232.266 84.6841 231.609 85.2752 231.228 86.0048C230.846 86.7344 230.573 87.5536 230.407 88.4614C230.274 89.175 230.191 89.8801 230.158 90.5768C230.124 91.2744 230.108 91.9795 230.108 92.6922C230.108 93.5359 230.124 94.3457 230.158 95.1243C230.191 95.903 230.24 96.6968 230.308 97.5074C231.336 97.3132 232.324 97.1351 233.27 96.972C234.216 96.8099 235.169 96.6496 236.132 96.4865C236.929 96.3574 237.709 96.2593 238.472 96.1943C239.236 96.1302 240.016 96.0972 240.812 96.0972C241.343 96.0972 241.791 96.1782 242.156 96.3395C242.521 96.5026 242.721 96.8099 242.754 97.2643C242.787 97.6536 242.638 97.9458 242.306 98.14C241.974 98.3351 241.626 98.5133 241.26 98.6745C240.132 98.9667 239.012 99.2759 237.9 99.5983C236.788 99.9235 235.685 100.231 234.589 100.523C234.024 100.686 233.37 100.872 232.623 101.083C231.876 101.293 231.171 101.496 230.507 101.69C230.473 102.307 230.457 102.899 230.457 103.465C230.457 104.034 230.439 104.641 230.407 105.29C230.374 106.196 230.308 107.145 230.207 108.134C230.108 109.123 229.958 110.088 229.76 111.028C229.561 112.002 229.278 112.999 228.913 114.02C228.548 115.041 228.083 115.941 227.519 116.719C227.122 117.271 226.656 117.716 226.126 118.056C225.594 118.397 224.997 118.6 224.333 118.665C223.669 118.665 222.989 118.56 222.292 118.348C221.594 118.137 220.914 117.869 220.25 117.546C219.586 117.222 218.965 116.857 218.384 116.452C217.803 116.046 217.313 115.649 216.915 115.26C216.086 114.449 215.488 113.607 215.122 112.731C214.758 111.855 214.575 110.947 214.575 110.007C214.575 108.288 215.032 106.724 215.944 105.314C216.857 103.904 217.994 102.777 219.355 101.933C220.118 101.447 220.873 100.993 221.62 100.572C222.366 100.151 223.138 99.7134 223.935 99.258L223.935 99.258ZM223.935 104.511C223.736 104.544 223.503 104.609 223.238 104.706C222.972 104.803 222.756 104.9 222.591 104.998C222.225 105.224 221.869 105.46 221.52 105.703C221.172 105.946 220.848 106.23 220.549 106.553C219.819 107.364 219.438 108.159 219.404 108.938C219.372 109.521 219.488 110.186 219.753 110.931C220.018 111.515 220.367 112.115 220.798 112.731C220.931 112.893 221.097 113.038 221.296 113.169C221.495 113.298 221.711 113.363 221.944 113.363C222.408 113.363 222.773 113.128 223.039 112.658C223.304 112.188 223.503 111.628 223.636 110.98C223.768 110.364 223.868 109.724 223.935 109.059C224.001 108.394 224.035 107.835 224.035 107.38C224.035 106.635 224.026 106.06 224.01 105.654C223.992 105.249 223.967 104.867 223.935 104.511H223.935Z" fill="white"/>
</g>
<g clip-path="url(#clip1)">
<path fill-rule="evenodd" clip-rule="evenodd" d="M13.1601 42.4674H10.3343L9.04279 57.3235H0.96912L2.26123 42.4674H0V34.3944H2.90656L3.87574 23.7371H1.69593V15.6627H4.60249L5.89387 0.808105H13.9677L12.6763 15.6627H15.5014L16.7935 0.808105H24.8673L23.5751 15.6627H25.8356V23.7371H22.8483L21.8799 34.3944H24.1404V42.4674H21.2338L19.9424 57.3235H11.8687L13.1601 42.4674ZM10.9803 34.3944H13.8062L14.7752 23.7371H11.9494L10.9803 34.3944Z" fill="white"/>
<path d="M28.2578 0.808105H38.7536L44.8091 33.8291L50.057 0.808105H61.3596V57.3235H52.479V29.0651L47.8765 57.3235H41.741L37.1392 29.0651V57.3235H28.2578L28.2578 0.808105Z" fill="white"/>
<path fill-rule="evenodd" clip-rule="evenodd" d="M65.3975 11.3026C65.3975 4.76333 70.1608 0 76.7007 0C83.2401 0 88.0034 4.76333 88.0034 11.3026V46.8272C88.0034 53.3665 83.2401 58.1305 76.7007 58.1305C70.1608 58.1305 65.3975 53.3665 65.3975 46.8272V11.3026ZM76.7007 48.4416C77.6693 48.4416 78.3152 47.7963 78.3152 46.8272V11.3026C78.3152 10.3343 77.6692 9.68817 76.7007 9.68817C75.7317 9.68817 75.0856 10.3342 75.0856 11.3026V46.8272C75.0856 47.7963 75.7317 48.4416 76.7007 48.4416Z" fill="white"/>
<path fill-rule="evenodd" clip-rule="evenodd" d="M92.0391 0.808105H103.342C109.882 0.808105 114.646 5.57072 114.646 12.1107V46.0201C114.646 52.5594 109.882 57.3235 103.342 57.3235H92.0391V0.808105ZM103.342 47.6346C104.312 47.6346 104.957 46.9892 104.957 46.0201V12.1107C104.957 11.1424 104.312 10.4956 103.342 10.4956H101.727V47.6346H103.342Z" fill="white"/>
<path d="M118.682 0.808105H138.059V10.4956H128.371V24.221H136.444V33.9099H128.371V47.6346H138.059V57.3235H118.682V0.808105Z" fill="white"/>
<path d="M141.287 0.808105H150.976V47.6346H159.857V57.3235H141.287V0.808105Z" fill="white"/>
<path fill-rule="evenodd" clip-rule="evenodd" d="M163.086 11.3026C163.086 4.76333 167.849 0 174.389 0C180.929 0 185.692 4.76333 185.692 11.3026V46.8272C185.692 53.3665 180.929 58.1305 174.389 58.1305C167.849 58.1305 163.086 53.3665 163.086 46.8272V11.3026ZM174.389 48.4416C175.358 48.4416 176.004 47.7963 176.004 46.8272V11.3026C176.004 10.3343 175.358 9.68817 174.389 9.68817C173.42 9.68817 172.774 10.3342 172.774 11.3026V46.8272C172.774 47.7963 173.42 48.4416 174.389 48.4416Z" fill="white"/>
<path d="M199.417 37.139V46.8272C199.417 47.7963 200.063 48.4416 201.032 48.4416C202 48.4416 202.646 47.7963 202.646 46.8272V40.5302C202.646 34.1516 189.729 30.1144 189.729 17.6004V11.3026C189.729 4.76333 194.492 0 201.032 0C207.571 0 212.335 4.76333 212.335 11.3026V20.9915H202.646V11.3026C202.646 10.3343 202 9.68818 201.032 9.68818C200.063 9.68818 199.417 10.3342 199.417 11.3026V17.6004C199.417 23.9789 212.335 28.0154 212.335 40.5302V46.8272C212.335 53.3665 207.571 58.1305 201.032 58.1305C194.492 58.1305 189.729 53.3665 189.729 46.8272V37.139H199.417Z" fill="white"/>
<path fill-rule="evenodd" clip-rule="evenodd" d="M219.257 0.808105H230.559C237.099 0.808105 241.863 5.57072 241.863 12.1107V46.0201C241.863 52.5594 237.099 57.3235 230.559 57.3235H219.257V0.808105ZM230.559 47.6346C231.529 47.6346 232.175 46.9892 232.175 46.0201V12.1107C232.175 11.1424 231.529 10.4956 230.559 10.4956H228.945V47.6346H230.559Z" fill="white"/>
<path d="M245.9 0.808105H265.277V10.4956H255.589V24.221H263.662V33.9099H255.589V47.6346H265.277V57.3235H245.9V0.808105Z" fill="white"/>
<path d="M272.886 0.808105H283.381L289.436 33.8291L294.685 0.808105H305.987V57.3235H297.106V29.0651L292.504 57.3235H286.368L281.767 29.0651V57.3235H272.886L272.886 0.808105Z" fill="white"/>
<path d="M319.713 0.808105V46.8277C319.713 47.7968 320.359 48.4421 321.328 48.4421C322.297 48.4421 322.943 47.7968 322.943 46.8277V0.808105H332.631V46.8277C332.631 53.367 327.868 58.131 321.328 58.131C314.788 58.131 310.024 53.367 310.024 46.8277V0.808105H319.713Z" fill="white"/>
<path d="M346.355 37.1395V46.8277C346.355 47.7968 347.001 48.4421 347.97 48.4421C348.939 48.4421 349.585 47.7968 349.585 46.8277V0.808105H359.273V46.8277C359.273 53.367 354.51 58.131 347.97 58.131C341.43 58.131 336.667 53.367 336.667 46.8277V37.1395H346.355Z" fill="white"/>
<path d="M363.31 0.808105H382.686V10.4956H372.998V24.221H381.072V33.9099H372.998V47.6346H382.686V57.3235H363.31V0.808105Z" fill="white"/>
<path fill-rule="evenodd" clip-rule="evenodd" d="M385.915 0.808105H397.219C403.758 0.808105 408.522 5.57072 408.522 12.1107V22.768C408.522 26.4815 406.987 29.6304 404.404 31.6486C406.987 33.6676 408.522 36.8158 408.522 40.5307V57.3235H398.833V38.1079C398.833 37.1395 398.188 36.4934 397.219 36.4934H395.604V57.3235H385.915L385.915 0.808105ZM397.219 26.8053C398.188 26.8053 398.833 26.1592 398.833 25.1901V12.1107C398.833 11.1424 398.188 10.4956 397.219 10.4956H395.604V26.8053H397.219Z" fill="white"/>
</g>
<defs>
<clipPath id="clip0">
<rect width="242.758" height="51.6651" fill="white" transform="translate(0 67)"/>
</clipPath>
<clipPath id="clip1">
<rect width="408.522" height="58.1309" fill="white"/>
</clipPath>
</defs>
</svg>
